<?xml version="1.0" encoding="UTF-8"?>
<svg width="61px" height="90px" viewBox="0 0 61 90" version="1.1" xmlns="http://www.w3.org/2000/svg" xmlns:xlink="http://www.w3.org/1999/xlink">
    <!-- Generator: Sketch 52.6 (67491) - http://www.bohemiancoding.com/sketch -->
    <title>mystery</title>
    <desc>Created with Sketch.</desc>
    <g id="Page-1" stroke="none" stroke-width="1" fill="none" fill-rule="evenodd">
        <g id="RPS" transform="translate(-663.000000, -307.000000)" fill="#000000">
            <path d="M690.001144,372.286 C687.044771,372.286 684.861947,370.035 684.476629,366.992 L683.514788,355.58 C683.002325,352.007 685.058003,349.359 688.52684,348.961 C700.602739,347.77 707.28515,343.005 707.28515,334.666 L707.28515,334.399 C707.28515,326.988 701.758694,321.824 692.512022,321.824 C685.700524,321.824 680.176009,324.338 675.037783,329.105 C673.751771,330.164 672.079469,330.958 670.280993,330.958 C666.303575,330.958 663.09,327.648 663.09,323.677 C663.09,321.692 663.859666,319.573 665.658142,317.985 C672.469641,311.37 681.079615,307 692.89637,307 C710.881132,307 723.09,317.326 723.09,333.872 L723.09,334.138 C723.09,350.815 711.397478,358.361 697.136814,360.877 L696.297266,366.993 C695.782861,369.904 693.729124,372.287 690.77081,372.287 L690.001144,372.287 L690.001144,372.286 Z M697.278518,389.471 C697.278518,393.628 694.007679,397 689.975909,397 C685.937345,397 682.668447,393.629 682.668447,389.471 C682.668447,385.313 685.937345,381.945 689.975909,381.945 C694.007679,381.946 697.278518,385.314 697.278518,389.471 Z" id="mystery"></path>
        </g>
    </g>
</svg>