<?xml version="1.0" encoding="UTF-8"?>
<svg width="90px" height="33px" viewBox="0 0 90 33" version="1.1" xmlns="http://www.w3.org/2000/svg" xmlns:xlink="http://www.w3.org/1999/xlink">
    <!-- Generator: Sketch 52.6 (67491) - http://www.bohemiancoding.com/sketch -->
    <title>paper</title>
    <desc>Created with Sketch.</desc>
    <g id="Page-1" stroke="none" stroke-width="1" fill="none" fill-rule="evenodd">
        <g id="RPS" transform="translate(-187.000000, -352.000000)" fill="#000000">
            <path d="M274.8,380.1 C259.5,386.6 234.1,374 233.9,373.9 L233.6,373.8 L222.7,373 C218.4,372.4 216.1,369.9 216.1,367.8 C216.1,365.9 216.4,365.5 216.5,365.5 C216.8,365.2 218.5,365.4 219.5,365.5 L234.8,366.5 C238.2,367 247.4,368.9 250.1,371.8 C250.7,372.4 251.6,372.4 252.2,371.9 C252.8,371.3 252.8,370.4 252.3,369.8 C248.4,365.6 236.5,363.8 235.2,363.6 L219.8,362.6 C217.8,362.4 215.9,362.1 214.6,363.3 C214.5,363.4 214.4,363.5 214.3,363.6 L197.6,361.8 C197.5,361.8 197.5,361.8 197.4,361.8 C195.8,361.8 190,360.4 190,356.4 C190,355.7 190,355.3 190.1,355.1 C190.6,355 191.9,355 192.4,355 L225.7,356 L231.4,356 C243.9,356 255.2,359.3 263.4,361.6 C268.6,363.1 272.6,364.3 275.5,364.3 C276.3,364.3 277,363.6 277,362.8 C277,362 276.3,361.3 275.5,361.3 C273,361.3 269.1,360.2 264.2,358.8 C255.8,356.4 244.3,353 231.4,353 L225.7,353 L192.4,352 C188.5,352 187,352.4 187,356.4 C187,362.2 193.8,364.8 197.4,364.8 L213.2,366.4 C213.2,366.9 213.1,367.3 213.1,367.8 C213.1,371.2 216.3,375.1 222.3,376 L232.8,376.7 C235.1,377.8 250.3,385 264.4,385 C268.5,385 272.5,384.4 276,382.9 C276.8,382.6 277.1,381.7 276.8,380.9 C276.5,380.2 275.6,379.8 274.8,380.1 Z" id="paper"></path>
        </g>
    </g>
</svg>