<?xml version="1.0" encoding="UTF-8"?>
<svg width="88px" height="62px" viewBox="0 0 88 62" version="1.1" xmlns="http://www.w3.org/2000/svg" xmlns:xlink="http://www.w3.org/1999/xlink">
    <!-- Generator: Sketch 52.6 (67491) - http://www.bohemiancoding.com/sketch -->
    <title>rock</title>
    <desc>Created with Sketch.</desc>
    <g id="Page-1" stroke="none" stroke-width="1" fill="none" fill-rule="evenodd">
        <g id="RPS" transform="translate(-189.000000, -227.000000)" fill="#000000">
            <path d="M211.671929,250.257103 C211.158214,247.561415 210.613336,244.625832 210.11082,241.768213 L200.480587,241.768213 C197.970292,241.768213 195.267812,243.096823 195.267812,246.012658 C195.267812,249.951108 199.25714,250.257103 200.480587,250.257103 L211.671929,250.257103 Z M209.601393,238.806973 C209.569043,238.614193 209.537026,238.422335 209.505364,238.231505 C209.343889,237.266141 209.121984,235.641407 209.843174,234.677029 C210.561392,233.713639 238.571884,226.45169 241.472493,227.03308 C243.454774,227.430874 249.25302,231.207443 260.888147,239.540373 C261.772793,240.174079 262.357274,240.595562 262.508843,240.692296 C264.002736,241.541185 272.381612,241.695169 273.950794,242.754307 C276.435332,244.432343 276.925702,246.643402 276.973253,246.890172 C276.992075,246.982958 277,247.076731 277,247.170503 L277,275.623089 C276.983159,276.123539 276.835553,278.438242 275.399117,279.651364 C274.265819,280.608831 271.756515,280.881266 270.885738,280.904955 C265.532292,281.054992 239.757686,289 227.029877,289 C221.437685,289 216.10207,288.477835 211.867062,287.151199 C211.819461,287.136249 211.773145,287.119134 211.728192,287.099997 L210.969538,287.243984 C210.276086,287.386124 209.565793,287.460155 208.873333,287.460155 C205.193086,287.460155 202.523297,285.463292 201.906125,282.249359 C201.660088,280.968286 201.816822,279.744022 202.313882,278.652472 L202.260776,278.663296 C201.604969,278.797539 200.945199,278.864661 200.298308,278.864661 C196.481352,278.864661 193.524276,276.59635 192.76247,273.084319 C192.350362,271.187151 192.742657,269.197197 193.86704,267.478691 C194.325043,266.779419 194.888798,266.156319 195.531332,265.627574 C193.73001,265.419521 192.13299,264.755361 190.979309,263.700148 C189.684536,262.515652 189,260.906711 189,259.047052 C189,255.254112 191.284764,252.445109 194.946251,251.552941 C193.269806,250.283823 192.295876,248.357462 192.295876,246.012658 C192.295876,241.837309 195.738368,238.806973 200.480587,238.806973 L209.601393,238.806973 Z M226.413539,250.00774 C228.361656,249.517449 229.409278,248.078943 229.391575,245.865583 C229.39062,245.716659 229.36987,245.512692 229.303807,245.245501 C228.275449,245.447861 227.292237,245.601628 226.533564,245.708637 C226.594803,246.769089 226.613187,248.29748 226.413539,250.00774 Z M231.388734,249.827484 C230.773429,250.881566 229.881849,251.71661 228.756944,252.286834 C229.905839,253.515385 230.268546,254.765361 230.330707,255.742308 C230.484049,258.146111 230.042093,259.82718 228.848073,261.105083 C229.909174,262.117222 230.644853,263.483805 230.957785,265.126479 C231.335204,267.104055 231.052683,268.896321 230.208489,270.367038 C233.520232,270.690485 236.101861,272.782536 236.498463,275.578671 C237.044309,279.430258 234.411174,282.735002 230.092952,283.614491 L218.932538,285.732661 C235.763093,287.538487 263.02571,277.944702 270.801533,277.944702 C271.81001,277.944702 274.000326,276.233105 274.028065,275.5688 L274.027074,247.360023 C273.928009,247.053041 273.524817,246.046219 272.281557,245.207201 C271.443471,244.640617 263.186444,244.489593 260.989193,243.237976 C260.845549,243.156048 260.675158,243.035624 259.152537,241.945888 C245.84421,232.413655 241.838041,230.17397 240.832536,229.926212 C239.128626,229.506703 212.606083,236.597887 212.532776,236.694621 C212.273227,237.03319 212.356441,237.269102 212.436683,237.748823 C213.761176,245.732327 215.715719,255.536008 216.448796,259.160566 C223.922223,256.723465 223.498227,243.834172 223.745888,243.516332 C223.99355,243.198493 224.360088,242.99318 224.7613,242.949748 C224.793672,242.94644 227.460003,242.657606 229.867327,242.097764 C229.89822,242.089461 229.92922,242.082205 229.960282,242.07598 C230.393644,241.973637 230.817347,241.862465 231.214362,241.742549 C231.690862,241.598436 232.205998,241.701092 232.589378,242.014983 C232.973748,242.328875 233.173858,242.813531 233.124326,243.306084 C233.0847,243.743361 232.278315,254.184695 245.41427,256.717543 C246.219664,256.872514 246.746688,257.649346 246.591156,258.45283 C246.435625,259.255326 245.657969,259.778478 244.849602,259.625481 C236.645785,258.042558 232.997544,253.683486 231.388734,249.827484 Z M212.260979,253.31661 L196.755761,254.248855 C193.773919,254.505496 191.846124,255.714669 191.971935,259.047052 C192.081897,261.963874 195.672986,262.864091 197.523511,262.703197 L209.011239,261.869789 L213.769658,260.899901 C213.586246,260.00136 212.994577,257.089806 212.260979,253.31661 Z M225.68471,253.543776 C225.225213,255.033693 224.54364,256.519187 223.544787,257.844788 C223.17848,258.331124 222.78229,258.780084 222.356747,259.191375 C222.746657,259.146601 223.133237,259.124044 223.513087,259.124044 C224.466052,259.124044 225.356891,259.262334 226.169169,259.525684 C227.107822,258.861459 227.497912,258.005861 227.365706,255.929853 C227.302148,254.939621 226.541421,254.138269 225.68471,253.543776 Z M224.000724,271.209666 C225.578036,270.859109 228.796812,269.64936 228.039344,265.681218 C227.442976,262.552174 224.948531,262.086272 223.514077,262.086272 C223.029652,262.086272 222.524423,262.138587 222.01325,262.243218 L199.818836,266.767006 C198.398251,267.056221 195.025104,269.575249 195.667042,272.459497 C196.13958,274.58172 197.903919,275.904407 200.299299,275.904407 C200.74608,275.904407 201.205739,275.857027 201.665398,275.763255 L208.197688,274.431867 C208.252233,274.419948 208.307058,274.40837 208.36216,274.397136 L224.000724,271.209666 Z M229.30638,273.285684 C228.871486,273.285684 228.430649,273.330102 227.999719,273.417952 L208.957537,277.299152 C206.748399,277.74926 204.341131,279.170656 204.825556,281.693633 C205.310973,284.225493 208.603877,284.736801 210.392982,284.339994 L229.516396,280.710501 C232.244633,280.154775 233.875235,278.257606 233.554266,275.994232 C233.333352,274.423787 231.546228,273.285684 229.30638,273.285684 Z" id="rock"></path>
        </g>
    </g>
</svg>