<?xml version="1.0" encoding="UTF-8"?>
<svg width="53px" height="70px" viewBox="0 0 53 70" version="1.1" xmlns="http://www.w3.org/2000/svg" xmlns:xlink="http://www.w3.org/1999/xlink">
    <!-- Generator: Sketch 52.6 (67491) - http://www.bohemiancoding.com/sketch -->
    <title>scissors</title>
    <desc>Created with Sketch.</desc>
    <g id="Page-1" stroke="none" stroke-width="1" fill="none" fill-rule="evenodd">
        <g id="RPS" transform="translate(-207.000000, -448.000000)" fill="#000000" fill-rule="nonzero">
            <path d="M256.127518,484.435934 C253.396613,483.001595 250.515725,481.874916 247.537518,481.076493 C248.077518,477.135417 248.857518,473.234454 249.337518,469.28335 C249.857518,465.041429 249.477518,460.799507 249.337518,456.557586 C249.207518,452.756905 246.687518,445.957797 241.517518,449.74845 C237.937518,452.365806 237.137518,460.659113 236.247518,464.550048 C235.487518,467.859348 234.747518,471.198733 234.107518,474.578231 C233.697518,472.432199 233.277518,470.286168 232.727518,468.18025 C231.457518,463.246384 229.067518,458.52311 227.117518,453.839949 C226.067518,451.312846 224.687518,447.672616 221.297518,448.023603 C219.147963,448.19943 217.386314,449.805442 217.007518,451.934594 C216.517518,454.301245 217.277518,457.229474 217.647518,459.576069 C218.277518,463.587342 220.507518,473.775976 220.767518,474.899132 C218.026935,474.880473 215.576735,476.608502 214.667518,479.201223 C211.847518,478.709842 208.617518,479.71266 207.517518,482.600777 C206.517518,485.218132 207.157518,489.490138 207.837518,492.147607 C208.064841,492.992466 208.376412,493.812226 208.767518,494.594483 C209.467518,500.280463 211.417518,507.631121 215.017518,512.16386 C219.427518,517.639247 228.927518,518.23091 235.357518,517.940093 C239.307518,517.859867 243.357518,517.368486 246.547518,514.841384 C250.027518,512.113719 251.877518,507.631121 254.277518,504.020975 C257.907518,498.545587 264.067518,488.858363 256.127518,484.435934 Z M221.357518,477.556601 C222.277518,481.467592 223.217518,485.368555 224.237518,489.249462 C224.090677,490.973067 223.796259,492.68081 223.357518,494.353807 C223.097518,495.236287 223.057518,496.15888 222.207518,496.118767 C221.357518,496.078654 219.207518,493.280791 219.007518,492.909749 C216.307518,488.858363 214.707518,477.757164 221.357518,477.556601 Z M213.967518,481.748381 C213.447518,485.488893 215.967518,493.371045 215.967518,493.491383 C215.597518,495.687555 214.167518,497.221867 212.427518,495.156062 C211.266256,493.846423 210.49074,492.238942 210.187518,490.513013 C209.627518,487.073346 209.357518,480.976211 213.997518,481.748381 L213.967518,481.748381 Z M249.887518,505.906273 C248.267518,508.483516 246.947518,511.491971 244.297518,513.196762 C241.647518,514.901553 238.457518,515.202399 235.387518,515.25254 C229.387518,515.563413 220.267518,515.162286 216.537518,509.626729 C214.496488,506.322532 213.041647,502.688751 212.237518,498.886546 C212.640398,499.167605 213.086233,499.38099 213.557518,499.518321 C215.877518,500.140068 217.347518,498.074263 218.087518,496.028513 C219.697518,497.893755 222.207518,500.039787 224.277518,498.415221 C226.347518,496.790655 226.657518,491.977128 226.917518,489.389856 C226.917518,489.329687 221.577518,468.190278 220.077518,457.951503 C219.897518,456.697981 218.907518,453.067778 219.677518,451.934594 C222.677518,447.451996 226.397518,459.215055 227.017518,460.679169 C230.017518,467.698897 233.237518,482.961791 233.667518,483.092158 C234.076674,483.258774 234.540237,483.222032 234.918212,482.993028 C235.296188,482.764025 235.544262,482.369607 235.587518,481.928888 C235.587518,481.928888 238.457518,462.704862 241.887518,454.251104 C242.057518,453.819892 242.517518,452.245467 243.027518,451.974707 C246.027518,450.400282 246.377518,453.418765 246.597518,454.862823 C246.95676,458.135557 247.070413,461.430723 246.937518,464.720527 C246.937518,470.005379 245.697518,475.270175 244.937518,480.514915 C241.047518,479.802914 237.357518,479.993449 235.777518,482.410241 C234.617518,484.175201 235.347518,487.203713 236.607518,488.758081 C238.297518,490.853971 241.027518,491.515831 243.377518,492.608903 C240.647827,493.254583 238.017449,494.266523 235.557518,495.617358 C232.557518,497.201811 229.507518,498.766207 227.827518,501.864916 C227.007518,503.379171 229.317518,504.732976 230.137518,503.218721 C232.717518,498.455334 247.387518,494.594483 247.597518,494.313694 C247.939479,494.112069 248.165706,493.759641 248.20713,493.36401 C248.248555,492.968378 248.100259,492.576514 247.807518,492.308058 C245.597518,490.222196 238.717518,489.299603 238.187518,485.960218 C237.307518,480.474802 253.087518,485.308386 255.267518,486.963036 C261.097518,491.555944 252.537518,501.634268 249.887518,505.906273 Z" id="scissors"></path>
        </g>
    </g>
</svg>